<svg width="231" height="231" viewBox="0 0 231 231" fill="none" xmlns="http://www.w3.org/2000/svg">
<rect x="31" y="31" width="200" height="200" rx="16" fill="#F3F5F7"/>
<path d="M63 75C63 68.3726 68.3726 63 75 63H231V231H63V75Z" fill="white"/>
<path d="M91.236 101.144C90.588 101.144 90.012 101.008 89.508 100.736C89.012 100.464 88.624 100.092 88.344 99.62C88.072 99.14 87.936 98.596 87.936 97.988V92.06H89.124V97.964C89.124 98.372 89.212 98.736 89.388 99.056C89.572 99.368 89.82 99.612 90.132 99.788C90.452 99.964 90.82 100.052 91.236 100.052C91.652 100.052 92.016 99.964 92.328 99.788C92.648 99.612 92.896 99.368 93.072 99.056C93.256 98.736 93.348 98.372 93.348 97.964V92.06H94.536V97.988C94.536 98.596 94.396 99.14 94.116 99.62C93.844 100.092 93.46 100.464 92.964 100.736C92.468 101.008 91.892 101.144 91.236 101.144ZM98.4127 101.144C97.7647 101.144 97.2007 100.984 96.7207 100.664C96.2407 100.344 95.9007 99.912 95.7007 99.368L96.5887 98.936C96.7727 99.32 97.0247 99.624 97.3447 99.848C97.6647 100.072 98.0207 100.184 98.4127 100.184C98.7647 100.184 99.0567 100.1 99.2887 99.932C99.5207 99.764 99.6367 99.544 99.6367 99.272C99.6367 99.08 99.5807 98.928 99.4687 98.816C99.3647 98.696 99.2367 98.604 99.0847 98.54C98.9327 98.468 98.7927 98.416 98.6647 98.384L97.6927 98.108C97.1087 97.94 96.6807 97.7 96.4087 97.388C96.1447 97.076 96.0127 96.712 96.0127 96.296C96.0127 95.912 96.1087 95.58 96.3007 95.3C96.5007 95.012 96.7687 94.788 97.1047 94.628C97.4487 94.468 97.8327 94.388 98.2567 94.388C98.8247 94.388 99.3327 94.532 99.7807 94.82C100.237 95.108 100.561 95.512 100.753 96.032L99.8407 96.452C99.6967 96.116 99.4807 95.852 99.1927 95.66C98.9047 95.46 98.5807 95.36 98.2207 95.36C97.8927 95.36 97.6327 95.444 97.4407 95.612C97.2487 95.772 97.1527 95.976 97.1527 96.224C97.1527 96.408 97.2007 96.56 97.2967 96.68C97.3927 96.792 97.5087 96.88 97.6447 96.944C97.7807 97 97.9127 97.048 98.0407 97.088L99.0967 97.4C99.6247 97.552 100.033 97.788 100.321 98.108C100.617 98.428 100.765 98.812 100.765 99.26C100.765 99.62 100.665 99.944 100.465 100.232C100.265 100.52 99.9887 100.744 99.6367 100.904C99.2847 101.064 98.8767 101.144 98.4127 101.144ZM104.962 101.144C104.338 101.144 103.782 100.996 103.294 100.7C102.806 100.404 102.422 100 102.142 99.488C101.862 98.968 101.722 98.388 101.722 97.748C101.722 97.1 101.858 96.524 102.13 96.02C102.41 95.516 102.786 95.12 103.258 94.832C103.738 94.536 104.274 94.388 104.866 94.388C105.346 94.388 105.77 94.476 106.138 94.652C106.514 94.82 106.83 95.052 107.086 95.348C107.35 95.636 107.55 95.968 107.686 96.344C107.83 96.712 107.902 97.096 107.902 97.496C107.902 97.584 107.894 97.684 107.878 97.796C107.87 97.9 107.858 98 107.842 98.096H102.538V97.136H107.194L106.666 97.568C106.738 97.152 106.698 96.78 106.546 96.452C106.394 96.124 106.17 95.864 105.874 95.672C105.578 95.48 105.242 95.384 104.866 95.384C104.49 95.384 104.146 95.48 103.834 95.672C103.522 95.864 103.278 96.14 103.102 96.5C102.934 96.852 102.866 97.272 102.898 97.76C102.866 98.232 102.938 98.648 103.114 99.008C103.298 99.36 103.554 99.636 103.882 99.836C104.218 100.028 104.582 100.124 104.974 100.124C105.406 100.124 105.77 100.024 106.066 99.824C106.362 99.624 106.602 99.368 106.786 99.056L107.722 99.536C107.594 99.832 107.394 100.104 107.122 100.352C106.858 100.592 106.542 100.784 106.174 100.928C105.814 101.072 105.41 101.144 104.962 101.144ZM109.117 101V94.532H110.209V95.72L110.089 95.552C110.241 95.184 110.473 94.912 110.785 94.736C111.097 94.552 111.477 94.46 111.925 94.46H112.321V95.516H111.757C111.301 95.516 110.933 95.66 110.653 95.948C110.373 96.228 110.233 96.628 110.233 97.148V101H109.117ZM113.072 101V94.532H114.164V95.792L113.984 95.684C114.144 95.276 114.4 94.96 114.752 94.736C115.112 94.504 115.532 94.388 116.012 94.388C116.476 94.388 116.888 94.492 117.248 94.7C117.616 94.908 117.904 95.196 118.112 95.564C118.328 95.932 118.436 96.348 118.436 96.812V101H117.308V97.172C117.308 96.812 117.244 96.508 117.116 96.26C116.988 96.012 116.804 95.82 116.564 95.684C116.332 95.54 116.064 95.468 115.76 95.468C115.456 95.468 115.184 95.54 114.944 95.684C114.712 95.82 114.528 96.016 114.392 96.272C114.256 96.52 114.188 96.82 114.188 97.172V101H113.072ZM121.689 101.144C121.265 101.144 120.889 101.068 120.561 100.916C120.241 100.756 119.989 100.54 119.805 100.268C119.621 99.988 119.529 99.668 119.529 99.308C119.529 98.964 119.601 98.656 119.745 98.384C119.897 98.104 120.129 97.868 120.441 97.676C120.761 97.484 121.161 97.348 121.641 97.268L124.041 96.872V97.808L121.893 98.168C121.477 98.24 121.173 98.372 120.981 98.564C120.797 98.756 120.705 98.992 120.705 99.272C120.705 99.536 120.809 99.756 121.017 99.932C121.233 100.108 121.501 100.196 121.821 100.196C122.229 100.196 122.581 100.112 122.877 99.944C123.181 99.768 123.417 99.532 123.585 99.236C123.761 98.94 123.849 98.612 123.849 98.252V96.608C123.849 96.256 123.717 95.972 123.453 95.756C123.197 95.532 122.857 95.42 122.433 95.42C122.065 95.42 121.737 95.516 121.449 95.708C121.169 95.892 120.961 96.14 120.825 96.452L119.853 95.948C119.973 95.652 120.165 95.388 120.429 95.156C120.693 94.916 121.001 94.728 121.353 94.592C121.705 94.456 122.073 94.388 122.457 94.388C122.953 94.388 123.389 94.484 123.765 94.676C124.141 94.86 124.433 95.12 124.641 95.456C124.857 95.784 124.965 96.168 124.965 96.608V101H123.873V99.776L124.077 99.848C123.941 100.104 123.757 100.328 123.525 100.52C123.293 100.712 123.021 100.864 122.709 100.976C122.397 101.088 122.057 101.144 121.689 101.144ZM126.455 101V94.532H127.547V95.852L127.391 95.648C127.551 95.24 127.807 94.928 128.159 94.712C128.511 94.496 128.907 94.388 129.347 94.388C129.851 94.388 130.303 94.528 130.703 94.808C131.111 95.088 131.391 95.456 131.543 95.912L131.231 95.924C131.399 95.42 131.683 95.04 132.083 94.784C132.483 94.52 132.927 94.388 133.415 94.388C133.863 94.388 134.267 94.492 134.627 94.7C134.995 94.908 135.287 95.196 135.503 95.564C135.719 95.932 135.827 96.348 135.827 96.812V101H134.699V97.172C134.699 96.812 134.635 96.508 134.507 96.26C134.379 96.012 134.203 95.82 133.979 95.684C133.763 95.54 133.507 95.468 133.211 95.468C132.923 95.468 132.663 95.54 132.431 95.684C132.207 95.82 132.027 96.016 131.891 96.272C131.763 96.52 131.699 96.82 131.699 97.172V101H130.571V97.172C130.571 96.812 130.507 96.508 130.379 96.26C130.251 96.012 130.075 95.82 129.851 95.684C129.635 95.54 129.379 95.468 129.083 95.468C128.795 95.468 128.535 95.54 128.303 95.684C128.079 95.82 127.899 96.016 127.763 96.272C127.635 96.52 127.571 96.82 127.571 97.172V101H126.455ZM140.148 101.144C139.524 101.144 138.968 100.996 138.48 100.7C137.992 100.404 137.608 100 137.328 99.488C137.048 98.968 136.908 98.388 136.908 97.748C136.908 97.1 137.044 96.524 137.316 96.02C137.596 95.516 137.972 95.12 138.444 94.832C138.924 94.536 139.46 94.388 140.052 94.388C140.532 94.388 140.956 94.476 141.324 94.652C141.7 94.82 142.016 95.052 142.272 95.348C142.536 95.636 142.736 95.968 142.872 96.344C143.016 96.712 143.088 97.096 143.088 97.496C143.088 97.584 143.08 97.684 143.064 97.796C143.056 97.9 143.044 98 143.028 98.096H137.724V97.136H142.38L141.852 97.568C141.924 97.152 141.884 96.78 141.732 96.452C141.58 96.124 141.356 95.864 141.06 95.672C140.764 95.48 140.428 95.384 140.052 95.384C139.676 95.384 139.332 95.48 139.02 95.672C138.708 95.864 138.464 96.14 138.288 96.5C138.12 96.852 138.052 97.272 138.084 97.76C138.052 98.232 138.124 98.648 138.3 99.008C138.484 99.36 138.74 99.636 139.068 99.836C139.404 100.028 139.768 100.124 140.16 100.124C140.592 100.124 140.956 100.024 141.252 99.824C141.548 99.624 141.788 99.368 141.972 99.056L142.908 99.536C142.78 99.832 142.58 100.104 142.308 100.352C142.044 100.592 141.728 100.784 141.36 100.928C141 101.072 140.596 101.144 140.148 101.144Z" fill="#1A202C"/>
<rect x="87" y="110" width="144" height="30" rx="2" fill="#F3F5F7"/>
<path d="M100.056 133.64C99.928 133.64 99.796 133.628 99.66 133.604C99.532 133.588 99.404 133.556 99.276 133.508V132.668C99.356 132.676 99.456 132.688 99.576 132.704C99.704 132.728 99.832 132.74 99.96 132.74C100.352 132.74 100.652 132.656 100.86 132.488C101.068 132.328 101.272 132.016 101.472 131.552L101.88 130.592L101.856 131.384L99.132 124.568H100.104L102.336 130.196H102.084L104.304 124.568H105.3L102.36 131.816C102.232 132.128 102.068 132.424 101.868 132.704C101.676 132.984 101.432 133.208 101.136 133.376C100.84 133.552 100.48 133.64 100.056 133.64ZM109.132 131.144C108.524 131.144 107.972 131 107.476 130.712C106.98 130.416 106.584 130.016 106.288 129.512C106 129 105.856 128.42 105.856 127.772C105.856 127.132 106 126.56 106.288 126.056C106.576 125.552 106.964 125.156 107.452 124.868C107.948 124.572 108.508 124.424 109.132 124.424C109.756 124.424 110.312 124.568 110.8 124.856C111.296 125.144 111.684 125.54 111.964 126.044C112.252 126.548 112.396 127.124 112.396 127.772C112.396 128.428 112.248 129.012 111.952 129.524C111.656 130.028 111.26 130.424 110.764 130.712C110.276 131 109.732 131.144 109.132 131.144ZM109.132 130.244C109.564 130.244 109.952 130.136 110.296 129.92C110.648 129.704 110.924 129.408 111.124 129.032C111.332 128.656 111.436 128.236 111.436 127.772C111.436 127.308 111.332 126.892 111.124 126.524C110.924 126.156 110.648 125.864 110.296 125.648C109.952 125.432 109.564 125.324 109.132 125.324C108.7 125.324 108.308 125.432 107.956 125.648C107.612 125.864 107.336 126.156 107.128 126.524C106.92 126.892 106.816 127.308 106.816 127.772C106.816 128.236 106.92 128.656 107.128 129.032C107.336 129.408 107.612 129.704 107.956 129.92C108.308 130.136 108.7 130.244 109.132 130.244ZM116.144 131.144C115.696 131.144 115.288 131.04 114.92 130.832C114.552 130.616 114.26 130.32 114.044 129.944C113.836 129.56 113.732 129.12 113.732 128.624V124.568H114.632V128.516C114.632 128.86 114.7 129.164 114.836 129.428C114.98 129.684 115.176 129.884 115.424 130.028C115.68 130.172 115.972 130.244 116.3 130.244C116.628 130.244 116.92 130.172 117.176 130.028C117.432 129.876 117.632 129.664 117.776 129.392C117.92 129.112 117.992 128.78 117.992 128.396V124.568H118.892V131H117.992V129.752L118.196 129.8C118.044 130.216 117.784 130.544 117.416 130.784C117.048 131.024 116.624 131.144 116.144 131.144ZM120.623 131V124.568H121.523V125.624L121.403 125.468C121.555 125.164 121.783 124.924 122.087 124.748C122.399 124.572 122.775 124.484 123.215 124.484H123.623V125.384H123.059C122.595 125.384 122.223 125.528 121.943 125.816C121.663 126.104 121.523 126.512 121.523 127.04V131H120.623ZM124.521 131.84V131H129.921V131.84H124.521ZM133.889 131.144C133.441 131.144 133.033 131.04 132.665 130.832C132.297 130.616 132.005 130.32 131.789 129.944C131.581 129.56 131.477 129.12 131.477 128.624V124.568H132.377V128.516C132.377 128.86 132.445 129.164 132.581 129.428C132.725 129.684 132.921 129.884 133.169 130.028C133.425 130.172 133.717 130.244 134.045 130.244C134.373 130.244 134.665 130.172 134.921 130.028C135.177 129.876 135.377 129.664 135.521 129.392C135.665 129.112 135.737 128.78 135.737 128.396V124.568H136.637V131H135.737V129.752L135.941 129.8C135.789 130.216 135.529 130.544 135.161 130.784C134.793 131.024 134.369 131.144 133.889 131.144ZM140.6 131.144C139.984 131.144 139.444 130.988 138.98 130.676C138.516 130.364 138.18 129.94 137.972 129.404L138.728 129.044C138.912 129.436 139.168 129.748 139.496 129.98C139.832 130.212 140.2 130.328 140.6 130.328C140.984 130.328 141.308 130.236 141.572 130.052C141.836 129.86 141.968 129.612 141.968 129.308C141.968 129.084 141.904 128.908 141.776 128.78C141.648 128.644 141.5 128.54 141.332 128.468C141.164 128.396 141.016 128.344 140.888 128.312L139.964 128.048C139.372 127.88 138.944 127.644 138.68 127.34C138.416 127.036 138.284 126.684 138.284 126.284C138.284 125.908 138.38 125.58 138.572 125.3C138.764 125.02 139.024 124.804 139.352 124.652C139.68 124.5 140.044 124.424 140.444 124.424C140.988 124.424 141.48 124.568 141.92 124.856C142.368 125.136 142.684 125.528 142.868 126.032L142.1 126.392C141.94 126.032 141.708 125.752 141.404 125.552C141.108 125.344 140.776 125.24 140.408 125.24C140.048 125.24 139.76 125.332 139.544 125.516C139.328 125.7 139.22 125.932 139.22 126.212C139.22 126.428 139.276 126.6 139.388 126.728C139.5 126.856 139.628 126.952 139.772 127.016C139.924 127.08 140.056 127.128 140.168 127.16L141.236 127.472C141.756 127.624 142.16 127.86 142.448 128.18C142.744 128.5 142.892 128.876 142.892 129.308C142.892 129.66 142.792 129.976 142.592 130.256C142.4 130.536 142.132 130.756 141.788 130.916C141.444 131.068 141.048 131.144 140.6 131.144ZM147.282 131.144C146.682 131.144 146.138 131 145.65 130.712C145.17 130.416 144.79 130.012 144.51 129.5C144.23 128.988 144.09 128.408 144.09 127.76C144.09 127.112 144.226 126.54 144.498 126.044C144.77 125.54 145.138 125.144 145.602 124.856C146.074 124.568 146.602 124.424 147.186 124.424C147.65 124.424 148.062 124.512 148.422 124.688C148.79 124.856 149.102 125.088 149.358 125.384C149.614 125.672 149.81 126 149.946 126.368C150.082 126.728 150.15 127.1 150.15 127.484C150.15 127.564 150.146 127.656 150.138 127.76C150.13 127.856 150.118 127.956 150.102 128.06H144.666V127.22H149.586L149.154 127.58C149.226 127.14 149.174 126.748 148.998 126.404C148.83 126.052 148.586 125.776 148.266 125.576C147.946 125.368 147.586 125.264 147.186 125.264C146.786 125.264 146.414 125.368 146.07 125.576C145.734 125.784 145.47 126.076 145.278 126.452C145.086 126.82 145.01 127.26 145.05 127.772C145.01 128.284 145.09 128.732 145.29 129.116C145.498 129.492 145.778 129.784 146.13 129.992C146.49 130.2 146.874 130.304 147.282 130.304C147.754 130.304 148.15 130.192 148.47 129.968C148.79 129.744 149.05 129.464 149.25 129.128L150.018 129.536C149.89 129.824 149.694 130.092 149.43 130.34C149.166 130.58 148.85 130.776 148.482 130.928C148.122 131.072 147.722 131.144 147.282 131.144ZM151.616 131V124.568H152.516V125.624L152.396 125.468C152.548 125.164 152.776 124.924 153.08 124.748C153.392 124.572 153.768 124.484 154.208 124.484H154.616V125.384H154.052C153.588 125.384 153.216 125.528 152.936 125.816C152.656 126.104 152.516 126.512 152.516 127.04V131H151.616Z" fill="#1A202C"/>
<path d="M156.32 133.28V120.86H157.28V133.28H156.32Z" fill="#1A202C"/>
<path d="M87.996 166V157.06H91.152C91.744 157.06 92.264 157.172 92.712 157.396C93.16 157.62 93.508 157.94 93.756 158.356C94.012 158.772 94.14 159.26 94.14 159.82C94.14 160.38 94.012 160.868 93.756 161.284C93.508 161.692 93.16 162.012 92.712 162.244C92.272 162.468 91.752 162.58 91.152 162.58H89.172V166H87.996ZM89.172 161.5H91.188C91.548 161.5 91.86 161.432 92.124 161.296C92.388 161.16 92.592 160.964 92.736 160.708C92.88 160.452 92.952 160.156 92.952 159.82C92.952 159.476 92.88 159.18 92.736 158.932C92.592 158.676 92.388 158.48 92.124 158.344C91.86 158.208 91.548 158.14 91.188 158.14H89.172V161.5ZM96.8091 166.144C96.3851 166.144 96.0091 166.068 95.6811 165.916C95.3611 165.756 95.1091 165.54 94.9251 165.268C94.7411 164.988 94.6491 164.668 94.6491 164.308C94.6491 163.964 94.7211 163.656 94.8651 163.384C95.0171 163.104 95.2491 162.868 95.5611 162.676C95.8811 162.484 96.2811 162.348 96.7611 162.268L99.1611 161.872V162.808L97.0131 163.168C96.5971 163.24 96.2931 163.372 96.1011 163.564C95.9171 163.756 95.8251 163.992 95.8251 164.272C95.8251 164.536 95.9291 164.756 96.1371 164.932C96.3531 165.108 96.6211 165.196 96.9411 165.196C97.3491 165.196 97.7011 165.112 97.9971 164.944C98.3011 164.768 98.5371 164.532 98.7051 164.236C98.8811 163.94 98.9691 163.612 98.9691 163.252V161.608C98.9691 161.256 98.8371 160.972 98.5731 160.756C98.3171 160.532 97.9771 160.42 97.5531 160.42C97.1851 160.42 96.8571 160.516 96.5691 160.708C96.2891 160.892 96.0811 161.14 95.9451 161.452L94.9731 160.948C95.0931 160.652 95.2851 160.388 95.5491 160.156C95.8131 159.916 96.1211 159.728 96.4731 159.592C96.8251 159.456 97.1931 159.388 97.5771 159.388C98.0731 159.388 98.5091 159.484 98.8851 159.676C99.2611 159.86 99.5531 160.12 99.7611 160.456C99.9771 160.784 100.085 161.168 100.085 161.608V166H98.9931V164.776L99.1971 164.848C99.0611 165.104 98.8771 165.328 98.6451 165.52C98.4131 165.712 98.1411 165.864 97.8291 165.976C97.5171 166.088 97.1771 166.144 96.8091 166.144ZM103.891 166.144C103.243 166.144 102.679 165.984 102.199 165.664C101.719 165.344 101.379 164.912 101.179 164.368L102.067 163.936C102.251 164.32 102.503 164.624 102.823 164.848C103.143 165.072 103.499 165.184 103.891 165.184C104.243 165.184 104.535 165.1 104.767 164.932C104.999 164.764 105.115 164.544 105.115 164.272C105.115 164.08 105.059 163.928 104.947 163.816C104.843 163.696 104.715 163.604 104.563 163.54C104.411 163.468 104.271 163.416 104.143 163.384L103.171 163.108C102.587 162.94 102.159 162.7 101.887 162.388C101.623 162.076 101.491 161.712 101.491 161.296C101.491 160.912 101.587 160.58 101.779 160.3C101.979 160.012 102.247 159.788 102.583 159.628C102.927 159.468 103.311 159.388 103.735 159.388C104.303 159.388 104.811 159.532 105.259 159.82C105.715 160.108 106.039 160.512 106.231 161.032L105.319 161.452C105.175 161.116 104.959 160.852 104.671 160.66C104.383 160.46 104.059 160.36 103.699 160.36C103.371 160.36 103.111 160.444 102.919 160.612C102.727 160.772 102.631 160.976 102.631 161.224C102.631 161.408 102.679 161.56 102.775 161.68C102.871 161.792 102.987 161.88 103.123 161.944C103.259 162 103.391 162.048 103.519 162.088L104.575 162.4C105.103 162.552 105.511 162.788 105.799 163.108C106.095 163.428 106.243 163.812 106.243 164.26C106.243 164.62 106.143 164.944 105.943 165.232C105.743 165.52 105.467 165.744 105.115 165.904C104.763 166.064 104.355 166.144 103.891 166.144ZM109.78 166.144C109.132 166.144 108.568 165.984 108.088 165.664C107.608 165.344 107.268 164.912 107.068 164.368L107.956 163.936C108.14 164.32 108.392 164.624 108.712 164.848C109.032 165.072 109.388 165.184 109.78 165.184C110.132 165.184 110.424 165.1 110.656 164.932C110.888 164.764 111.004 164.544 111.004 164.272C111.004 164.08 110.948 163.928 110.836 163.816C110.732 163.696 110.604 163.604 110.452 163.54C110.3 163.468 110.16 163.416 110.032 163.384L109.06 163.108C108.476 162.94 108.048 162.7 107.776 162.388C107.512 162.076 107.38 161.712 107.38 161.296C107.38 160.912 107.476 160.58 107.668 160.3C107.868 160.012 108.136 159.788 108.472 159.628C108.816 159.468 109.2 159.388 109.624 159.388C110.192 159.388 110.7 159.532 111.148 159.82C111.604 160.108 111.928 160.512 112.12 161.032L111.208 161.452C111.064 161.116 110.848 160.852 110.56 160.66C110.272 160.46 109.948 160.36 109.588 160.36C109.26 160.36 109 160.444 108.808 160.612C108.616 160.772 108.52 160.976 108.52 161.224C108.52 161.408 108.568 161.56 108.664 161.68C108.76 161.792 108.876 161.88 109.012 161.944C109.148 162 109.28 162.048 109.408 162.088L110.464 162.4C110.992 162.552 111.4 162.788 111.688 163.108C111.984 163.428 112.132 163.812 112.132 164.26C112.132 164.62 112.032 164.944 111.832 165.232C111.632 165.52 111.356 165.744 111.004 165.904C110.652 166.064 110.244 166.144 109.78 166.144ZM114.724 166L112.504 159.532H113.74L115.504 164.944L115.072 164.932L116.8 159.532H117.856L119.584 164.932L119.152 164.944L120.928 159.532H122.152L119.932 166H118.864L117.16 160.6H117.496L115.792 166H114.724ZM125.865 166.144C125.241 166.144 124.677 166 124.173 165.712C123.669 165.416 123.269 165.012 122.973 164.5C122.677 163.988 122.529 163.408 122.529 162.76C122.529 162.112 122.673 161.536 122.961 161.032C123.257 160.528 123.657 160.128 124.161 159.832C124.665 159.536 125.233 159.388 125.865 159.388C126.489 159.388 127.053 159.536 127.557 159.832C128.061 160.12 128.457 160.516 128.745 161.02C129.041 161.524 129.189 162.104 129.189 162.76C129.189 163.416 129.037 164 128.733 164.512C128.429 165.016 128.025 165.416 127.521 165.712C127.025 166 126.473 166.144 125.865 166.144ZM125.865 165.064C126.265 165.064 126.625 164.964 126.945 164.764C127.273 164.564 127.529 164.288 127.713 163.936C127.905 163.584 128.001 163.192 128.001 162.76C128.001 162.32 127.905 161.932 127.713 161.596C127.529 161.252 127.273 160.98 126.945 160.78C126.625 160.572 126.265 160.468 125.865 160.468C125.457 160.468 125.089 160.572 124.761 160.78C124.441 160.98 124.185 161.252 123.993 161.596C123.801 161.932 123.705 162.32 123.705 162.76C123.705 163.192 123.801 163.584 123.993 163.936C124.185 164.288 124.441 164.564 124.761 164.764C125.089 164.964 125.457 165.064 125.865 165.064ZM130.404 166V159.532H131.496V160.72L131.376 160.552C131.528 160.184 131.76 159.912 132.072 159.736C132.384 159.552 132.764 159.46 133.212 159.46H133.608V160.516H133.044C132.588 160.516 132.22 160.66 131.94 160.948C131.66 161.228 131.52 161.628 131.52 162.148V166H130.404ZM137.3 166.144C136.692 166.144 136.144 165.996 135.656 165.7C135.176 165.404 134.796 165 134.516 164.488C134.236 163.976 134.096 163.404 134.096 162.772C134.096 162.124 134.236 161.548 134.516 161.044C134.796 160.532 135.176 160.128 135.656 159.832C136.144 159.536 136.692 159.388 137.3 159.388C137.836 159.388 138.312 159.504 138.728 159.736C139.144 159.96 139.472 160.264 139.712 160.648L139.532 160.924V156.916H140.66V166H139.568V164.62L139.712 164.812C139.488 165.236 139.16 165.564 138.728 165.796C138.304 166.028 137.828 166.144 137.3 166.144ZM137.396 165.064C137.804 165.064 138.168 164.964 138.488 164.764C138.808 164.564 139.06 164.292 139.244 163.948C139.436 163.596 139.532 163.204 139.532 162.772C139.532 162.332 139.436 161.94 139.244 161.596C139.06 161.244 138.808 160.968 138.488 160.768C138.168 160.568 137.804 160.468 137.396 160.468C136.996 160.468 136.632 160.572 136.304 160.78C135.984 160.98 135.732 161.252 135.548 161.596C135.364 161.932 135.272 162.324 135.272 162.772C135.272 163.204 135.364 163.596 135.548 163.948C135.732 164.292 135.984 164.564 136.304 164.764C136.624 164.964 136.988 165.064 137.396 165.064Z" fill="#1A202C"/>
<rect x="87" y="175" width="144" height="30" rx="2" fill="#F3F5F7"/>
<circle cx="101.5" cy="190.5" r="2.5" fill="#1A202C"/>
<circle cx="112.5" cy="190.5" r="2.5" fill="#1A202C"/>
<circle cx="123.5" cy="190.5" r="2.5" fill="#1A202C"/>
<circle cx="134.5" cy="190.5" r="2.5" fill="#1A202C"/>
<circle cx="145.5" cy="190.5" r="2.5" fill="#1A202C"/>
<circle cx="156.5" cy="190.5" r="2.5" fill="#1A202C"/>
<circle cx="167.5" cy="190.5" r="2.5" fill="#1A202C"/>
<circle cx="178.5" cy="190.5" r="2.5" fill="#1A202C"/>
<circle cx="189.5" cy="190.5" r="2.5" fill="#1A202C"/>
<circle cx="31" cy="31" r="28" fill="#7C5CFC" stroke="#0D121F" stroke-width="6"/>
<path d="M30.5248 41V25.52H27.0928V23.12H33.3328V41H30.5248Z" fill="white"/>
</svg>
