<svg width="230" height="231" viewBox="0 0 230 231" fill="none" xmlns="http://www.w3.org/2000/svg">
<rect x="30" y="31" width="200" height="200" rx="16" fill="#F3F5F7"/>
<path d="M62 75C62 68.3726 67.3726 63 74 63H230V231H62V75Z" fill="white"/>
<path d="M106 97C100.49 97 96 101.49 96 107C96 112.51 100.49 117 106 117C111.51 117 116 112.51 116 107C116 101.49 111.51 97 106 97ZM110.78 104.7L105.11 110.37C104.97 110.51 104.78 110.59 104.58 110.59C104.38 110.59 104.19 110.51 104.05 110.37L101.22 107.54C100.93 107.25 100.93 106.77 101.22 106.48C101.51 106.19 101.99 106.19 102.28 106.48L104.58 108.78L109.72 103.64C110.01 103.35 110.49 103.35 110.78 103.64C111.07 103.93 111.07 104.4 110.78 104.7Z" fill="#9CD323"/>
<rect x="130" y="95" width="100" height="5" rx="2.5" fill="#C3D4E9"/>
<rect x="130" y="112" width="100" height="5" rx="2.5" fill="#C3D4E9"/>
<rect x="130" y="129" width="100" height="5" rx="2.5" fill="#C3D4E9"/>
<path d="M106 160C100.49 160 96 164.49 96 170C96 175.51 100.49 180 106 180C111.51 180 116 175.51 116 170C116 164.49 111.51 160 106 160ZM110.78 167.7L105.11 173.37C104.97 173.51 104.78 173.59 104.58 173.59C104.38 173.59 104.19 173.51 104.05 173.37L101.22 170.54C100.93 170.25 100.93 169.77 101.22 169.48C101.51 169.19 101.99 169.19 102.28 169.48L104.58 171.78L109.72 166.64C110.01 166.35 110.49 166.35 110.78 166.64C111.07 166.93 111.07 167.4 110.78 167.7Z" fill="#9CD323"/>
<rect x="130" y="158" width="100" height="5" rx="2.5" fill="#C3D4E9"/>
<rect x="130" y="175" width="100" height="5" rx="2.5" fill="#C3D4E9"/>
<rect x="130" y="192" width="100" height="5" rx="2.5" fill="#C3D4E9"/>
<circle cx="31" cy="31" r="28" fill="#7C5CFC" stroke="#0D121F" stroke-width="6"/>
<path d="M31.1961 41.288C32.4281 41.288 33.5161 41.032 34.4601 40.52C35.4201 39.992 36.1721 39.28 36.7161 38.384C37.2601 37.472 37.5321 36.456 37.5321 35.336C37.5321 33.896 37.1081 32.704 36.2601 31.76C35.4121 30.816 34.2921 30.256 32.9001 30.08L36.7881 25.4V23.12H26.0121V25.52H33.6201L28.9161 31.064L29.5401 32.384C29.7641 32.304 30.0201 32.24 30.3081 32.192C30.6121 32.144 30.9081 32.12 31.1961 32.12C32.2361 32.12 33.0761 32.408 33.7161 32.984C34.3721 33.56 34.7001 34.368 34.7001 35.408C34.7001 36.464 34.3721 37.288 33.7161 37.88C33.0761 38.472 32.2361 38.768 31.1961 38.768C30.3321 38.768 29.5721 38.536 28.9161 38.072C28.2601 37.592 27.7721 36.936 27.4521 36.104L25.0521 37.016C25.3081 37.896 25.7321 38.656 26.3241 39.296C26.9321 39.92 27.6521 40.408 28.4841 40.76C29.3321 41.112 30.2361 41.288 31.1961 41.288Z" fill="white"/>
</svg>
