<svg width="231" height="231" viewBox="0 0 231 231" fill="none" xmlns="http://www.w3.org/2000/svg">
<rect x="31" y="31" width="200" height="200" rx="16" fill="#F3F5F7"/>
<path d="M63 75C63 68.3726 68.3726 63 75 63H187C193.627 63 199 68.3726 199 75V231H63V75Z" fill="white"/>
<path d="M178.619 118.2H179.579V117.12C180.107 117.072 180.567 116.936 180.959 116.712C181.359 116.488 181.667 116.196 181.883 115.836C182.107 115.468 182.219 115.052 182.219 114.588C182.219 113.412 181.503 112.6 180.071 112.152L179.579 111.996V109.248C180.251 109.448 180.723 109.908 180.995 110.628L182.171 110.112C181.979 109.568 181.655 109.104 181.199 108.72C180.751 108.336 180.211 108.088 179.579 107.976V106.86H178.619V107.928C178.099 107.96 177.643 108.088 177.251 108.312C176.859 108.536 176.551 108.832 176.327 109.2C176.103 109.568 175.991 109.988 175.991 110.46C175.991 111.036 176.167 111.54 176.519 111.972C176.871 112.396 177.383 112.712 178.055 112.92L178.619 113.1V115.824C178.219 115.728 177.863 115.544 177.551 115.272C177.247 114.992 177.011 114.628 176.843 114.18L175.643 114.684C175.851 115.324 176.219 115.864 176.747 116.304C177.275 116.744 177.899 117.012 178.619 117.108V118.2ZM178.511 111.66C178.135 111.548 177.855 111.38 177.671 111.156C177.487 110.932 177.395 110.676 177.395 110.388C177.395 110.052 177.507 109.776 177.731 109.56C177.955 109.344 178.251 109.212 178.619 109.164V111.696L178.511 111.66ZM179.735 113.448C180.087 113.56 180.355 113.712 180.539 113.904C180.731 114.096 180.827 114.356 180.827 114.684C180.827 115.004 180.715 115.272 180.491 115.488C180.267 115.696 179.963 115.824 179.579 115.872V113.4L179.735 113.448Z" fill="#C3D4E9"/>
<path d="M178.619 141.2H179.579V140.12C180.107 140.072 180.567 139.936 180.959 139.712C181.359 139.488 181.667 139.196 181.883 138.836C182.107 138.468 182.219 138.052 182.219 137.588C182.219 136.412 181.503 135.6 180.071 135.152L179.579 134.996V132.248C180.251 132.448 180.723 132.908 180.995 133.628L182.171 133.112C181.979 132.568 181.655 132.104 181.199 131.72C180.751 131.336 180.211 131.088 179.579 130.976V129.86H178.619V130.928C178.099 130.96 177.643 131.088 177.251 131.312C176.859 131.536 176.551 131.832 176.327 132.2C176.103 132.568 175.991 132.988 175.991 133.46C175.991 134.036 176.167 134.54 176.519 134.972C176.871 135.396 177.383 135.712 178.055 135.92L178.619 136.1V138.824C178.219 138.728 177.863 138.544 177.551 138.272C177.247 137.992 177.011 137.628 176.843 137.18L175.643 137.684C175.851 138.324 176.219 138.864 176.747 139.304C177.275 139.744 177.899 140.012 178.619 140.108V141.2ZM178.511 134.66C178.135 134.548 177.855 134.38 177.671 134.156C177.487 133.932 177.395 133.676 177.395 133.388C177.395 133.052 177.507 132.776 177.731 132.56C177.955 132.344 178.251 132.212 178.619 132.164V134.696L178.511 134.66ZM179.735 136.448C180.087 136.56 180.355 136.712 180.539 136.904C180.731 137.096 180.827 137.356 180.827 137.684C180.827 138.004 180.715 138.272 180.491 138.488C180.267 138.696 179.963 138.824 179.579 138.872V136.4L179.735 136.448Z" fill="#C3D4E9"/>
<path d="M178.619 164.2H179.579V163.12C180.107 163.072 180.567 162.936 180.959 162.712C181.359 162.488 181.667 162.196 181.883 161.836C182.107 161.468 182.219 161.052 182.219 160.588C182.219 159.412 181.503 158.6 180.071 158.152L179.579 157.996V155.248C180.251 155.448 180.723 155.908 180.995 156.628L182.171 156.112C181.979 155.568 181.655 155.104 181.199 154.72C180.751 154.336 180.211 154.088 179.579 153.976V152.86H178.619V153.928C178.099 153.96 177.643 154.088 177.251 154.312C176.859 154.536 176.551 154.832 176.327 155.2C176.103 155.568 175.991 155.988 175.991 156.46C175.991 157.036 176.167 157.54 176.519 157.972C176.871 158.396 177.383 158.712 178.055 158.92L178.619 159.1V161.824C178.219 161.728 177.863 161.544 177.551 161.272C177.247 160.992 177.011 160.628 176.843 160.18L175.643 160.684C175.851 161.324 176.219 161.864 176.747 162.304C177.275 162.744 177.899 163.012 178.619 163.108V164.2ZM178.511 157.66C178.135 157.548 177.855 157.38 177.671 157.156C177.487 156.932 177.395 156.676 177.395 156.388C177.395 156.052 177.507 155.776 177.731 155.56C177.955 155.344 178.251 155.212 178.619 155.164V157.696L178.511 157.66ZM179.735 159.448C180.087 159.56 180.355 159.712 180.539 159.904C180.731 160.096 180.827 160.356 180.827 160.684C180.827 161.004 180.715 161.272 180.491 161.488C180.267 161.696 179.963 161.824 179.579 161.872V159.4L179.735 159.448Z" fill="#C3D4E9"/>
<path d="M178.619 187.2H179.579V186.12C180.107 186.072 180.567 185.936 180.959 185.712C181.359 185.488 181.667 185.196 181.883 184.836C182.107 184.468 182.219 184.052 182.219 183.588C182.219 182.412 181.503 181.6 180.071 181.152L179.579 180.996V178.248C180.251 178.448 180.723 178.908 180.995 179.628L182.171 179.112C181.979 178.568 181.655 178.104 181.199 177.72C180.751 177.336 180.211 177.088 179.579 176.976V175.86H178.619V176.928C178.099 176.96 177.643 177.088 177.251 177.312C176.859 177.536 176.551 177.832 176.327 178.2C176.103 178.568 175.991 178.988 175.991 179.46C175.991 180.036 176.167 180.54 176.519 180.972C176.871 181.396 177.383 181.712 178.055 181.92L178.619 182.1V184.824C178.219 184.728 177.863 184.544 177.551 184.272C177.247 183.992 177.011 183.628 176.843 183.18L175.643 183.684C175.851 184.324 176.219 184.864 176.747 185.304C177.275 185.744 177.899 186.012 178.619 186.108V187.2ZM178.511 180.66C178.135 180.548 177.855 180.38 177.671 180.156C177.487 179.932 177.395 179.676 177.395 179.388C177.395 179.052 177.507 178.776 177.731 178.56C177.955 178.344 178.251 178.212 178.619 178.164V180.696L178.511 180.66ZM179.735 182.448C180.087 182.56 180.355 182.712 180.539 182.904C180.731 183.096 180.827 183.356 180.827 183.684C180.827 184.004 180.715 184.272 180.491 184.488C180.267 184.696 179.963 184.824 179.579 184.872V182.4L179.735 182.448Z" fill="#C3D4E9"/>
<path d="M178.619 210.2H179.579V209.12C180.107 209.072 180.567 208.936 180.959 208.712C181.359 208.488 181.667 208.196 181.883 207.836C182.107 207.468 182.219 207.052 182.219 206.588C182.219 205.412 181.503 204.6 180.071 204.152L179.579 203.996V201.248C180.251 201.448 180.723 201.908 180.995 202.628L182.171 202.112C181.979 201.568 181.655 201.104 181.199 200.72C180.751 200.336 180.211 200.088 179.579 199.976V198.86H178.619V199.928C178.099 199.96 177.643 200.088 177.251 200.312C176.859 200.536 176.551 200.832 176.327 201.2C176.103 201.568 175.991 201.988 175.991 202.46C175.991 203.036 176.167 203.54 176.519 203.972C176.871 204.396 177.383 204.712 178.055 204.92L178.619 205.1V207.824C178.219 207.728 177.863 207.544 177.551 207.272C177.247 206.992 177.011 206.628 176.843 206.18L175.643 206.684C175.851 207.324 176.219 207.864 176.747 208.304C177.275 208.744 177.899 209.012 178.619 209.108V210.2ZM178.511 203.66C178.135 203.548 177.855 203.38 177.671 203.156C177.487 202.932 177.395 202.676 177.395 202.388C177.395 202.052 177.507 201.776 177.731 201.56C177.955 201.344 178.251 201.212 178.619 201.164V203.696L178.511 203.66ZM179.735 205.448C180.087 205.56 180.355 205.712 180.539 205.904C180.731 206.096 180.827 206.356 180.827 206.684C180.827 207.004 180.715 207.272 180.491 207.488C180.267 207.696 179.963 207.824 179.579 207.872V205.4L179.735 205.448Z" fill="#C3D4E9"/>
<path d="M105.414 91H111.306V89.74H106.83V87.148H111.066V85.888H106.83V83.32H111.306V82.06H105.414V91ZM111.601 91H113.197L114.673 88.828L116.137 91H117.733L115.465 87.748L117.745 84.508H116.149L114.673 86.656L113.197 84.508H111.601L113.869 87.748L111.601 91ZM118.431 93.4H119.787V90.244C120.027 90.532 120.331 90.756 120.699 90.916C121.067 91.068 121.467 91.144 121.899 91.144C122.523 91.144 123.079 90.996 123.567 90.7C124.055 90.396 124.439 89.988 124.719 89.476C125.007 88.964 125.151 88.388 125.151 87.748C125.151 87.108 125.007 86.532 124.719 86.02C124.439 85.508 124.051 85.104 123.555 84.808C123.067 84.512 122.515 84.364 121.899 84.364C121.435 84.364 121.015 84.448 120.639 84.616C120.271 84.784 119.967 85.02 119.727 85.324V84.508H118.431V93.4ZM121.767 89.884C121.391 89.884 121.051 89.792 120.747 89.608C120.451 89.424 120.215 89.172 120.039 88.852C119.871 88.524 119.787 88.156 119.787 87.748C119.787 87.34 119.871 86.976 120.039 86.656C120.215 86.336 120.451 86.084 120.747 85.9C121.051 85.716 121.391 85.624 121.767 85.624C122.151 85.624 122.491 85.716 122.787 85.9C123.083 86.084 123.315 86.336 123.483 86.656C123.659 86.976 123.747 87.34 123.747 87.748C123.747 88.156 123.659 88.524 123.483 88.852C123.315 89.172 123.083 89.424 122.787 89.608C122.491 89.792 122.151 89.884 121.767 89.884ZM129.278 91.144C129.942 91.144 130.518 90.992 131.006 90.688C131.502 90.384 131.85 90 132.05 89.536L130.946 88.996C130.786 89.268 130.566 89.496 130.286 89.68C130.014 89.856 129.682 89.944 129.29 89.944C128.778 89.944 128.342 89.784 127.982 89.464C127.622 89.136 127.422 88.696 127.382 88.144H132.206C132.23 88.048 132.246 87.944 132.254 87.832C132.262 87.72 132.266 87.612 132.266 87.508C132.266 86.948 132.142 86.432 131.894 85.96C131.654 85.48 131.302 85.096 130.838 84.808C130.382 84.512 129.826 84.364 129.17 84.364C128.562 84.364 128.014 84.512 127.526 84.808C127.046 85.096 126.666 85.496 126.386 86.008C126.106 86.512 125.966 87.088 125.966 87.736C125.966 88.376 126.106 88.956 126.386 89.476C126.674 89.988 127.066 90.396 127.562 90.7C128.058 90.996 128.63 91.144 129.278 91.144ZM129.17 85.504C129.626 85.504 130.01 85.648 130.322 85.936C130.634 86.224 130.802 86.6 130.826 87.064H127.406C127.486 86.568 127.69 86.184 128.018 85.912C128.346 85.64 128.73 85.504 129.17 85.504ZM133.35 91H134.706V87.172C134.706 86.692 134.842 86.316 135.114 86.044C135.386 85.764 135.73 85.624 136.146 85.624C136.57 85.624 136.914 85.764 137.178 86.044C137.45 86.316 137.586 86.692 137.586 87.172V91H138.93V86.8C138.93 86.32 138.822 85.9 138.606 85.54C138.398 85.172 138.11 84.884 137.742 84.676C137.374 84.468 136.954 84.364 136.482 84.364C136.082 84.364 135.722 84.444 135.402 84.604C135.082 84.764 134.83 84.996 134.646 85.3V84.508H133.35V91ZM142.541 91.144C143.021 91.144 143.441 91.064 143.801 90.904C144.169 90.736 144.453 90.508 144.653 90.22C144.853 89.924 144.953 89.584 144.953 89.2C144.953 88.752 144.809 88.368 144.521 88.048C144.233 87.72 143.821 87.48 143.285 87.328L142.229 87.016C142.029 86.952 141.841 86.864 141.665 86.752C141.489 86.64 141.401 86.472 141.401 86.248C141.401 86.016 141.489 85.832 141.665 85.696C141.841 85.56 142.077 85.492 142.373 85.492C142.717 85.492 143.025 85.584 143.297 85.768C143.577 85.952 143.781 86.2 143.909 86.512L144.953 86.02C144.761 85.5 144.433 85.096 143.969 84.808C143.505 84.512 142.977 84.364 142.385 84.364C141.945 84.364 141.549 84.448 141.197 84.616C140.845 84.776 140.569 85 140.369 85.288C140.169 85.576 140.069 85.916 140.069 86.308C140.069 86.748 140.205 87.128 140.477 87.448C140.757 87.768 141.177 88.008 141.737 88.168L142.757 88.456C142.965 88.512 143.161 88.6 143.345 88.72C143.529 88.832 143.621 89.004 143.621 89.236C143.621 89.484 143.521 89.68 143.321 89.824C143.121 89.968 142.861 90.04 142.541 90.04C142.165 90.04 141.821 89.932 141.509 89.716C141.205 89.5 140.965 89.208 140.789 88.84L139.745 89.332C139.945 89.884 140.293 90.324 140.789 90.652C141.293 90.98 141.877 91.144 142.541 91.144ZM149.09 91.144C149.754 91.144 150.33 90.992 150.818 90.688C151.314 90.384 151.662 90 151.862 89.536L150.758 88.996C150.598 89.268 150.378 89.496 150.098 89.68C149.826 89.856 149.494 89.944 149.102 89.944C148.59 89.944 148.154 89.784 147.794 89.464C147.434 89.136 147.234 88.696 147.194 88.144H152.018C152.042 88.048 152.058 87.944 152.066 87.832C152.074 87.72 152.078 87.612 152.078 87.508C152.078 86.948 151.954 86.432 151.706 85.96C151.466 85.48 151.114 85.096 150.65 84.808C150.194 84.512 149.638 84.364 148.982 84.364C148.374 84.364 147.826 84.512 147.338 84.808C146.858 85.096 146.478 85.496 146.198 86.008C145.918 86.512 145.778 87.088 145.778 87.736C145.778 88.376 145.918 88.956 146.198 89.476C146.486 89.988 146.878 90.396 147.374 90.7C147.87 90.996 148.442 91.144 149.09 91.144ZM148.982 85.504C149.438 85.504 149.822 85.648 150.134 85.936C150.446 86.224 150.614 86.6 150.638 87.064H147.218C147.298 86.568 147.502 86.184 147.83 85.912C148.158 85.64 148.542 85.504 148.982 85.504ZM155.561 91.144C156.041 91.144 156.461 91.064 156.821 90.904C157.189 90.736 157.473 90.508 157.673 90.22C157.873 89.924 157.973 89.584 157.973 89.2C157.973 88.752 157.829 88.368 157.541 88.048C157.253 87.72 156.841 87.48 156.305 87.328L155.249 87.016C155.049 86.952 154.861 86.864 154.685 86.752C154.509 86.64 154.421 86.472 154.421 86.248C154.421 86.016 154.509 85.832 154.685 85.696C154.861 85.56 155.097 85.492 155.393 85.492C155.737 85.492 156.045 85.584 156.317 85.768C156.597 85.952 156.801 86.2 156.929 86.512L157.973 86.02C157.781 85.5 157.453 85.096 156.989 84.808C156.525 84.512 155.997 84.364 155.405 84.364C154.965 84.364 154.569 84.448 154.217 84.616C153.865 84.776 153.589 85 153.389 85.288C153.189 85.576 153.089 85.916 153.089 86.308C153.089 86.748 153.225 87.128 153.497 87.448C153.777 87.768 154.197 88.008 154.757 88.168L155.777 88.456C155.985 88.512 156.181 88.6 156.365 88.72C156.549 88.832 156.641 89.004 156.641 89.236C156.641 89.484 156.541 89.68 156.341 89.824C156.141 89.968 155.881 90.04 155.561 90.04C155.185 90.04 154.841 89.932 154.529 89.716C154.225 89.5 153.985 89.208 153.809 88.84L152.765 89.332C152.965 89.884 153.313 90.324 153.809 90.652C154.313 90.98 154.897 91.144 155.561 91.144Z" fill="#1A202C"/>
<rect x="79" y="110" width="41" height="5" rx="2.5" fill="#C3D4E9"/>
<rect x="79" y="133" width="79" height="5" rx="2.5" fill="#C3D4E9"/>
<rect x="79" y="156" width="60" height="5" rx="2.5" fill="#C3D4E9"/>
<rect x="79" y="179" width="31" height="5" rx="2.5" fill="#C3D4E9"/>
<rect x="114" y="179" width="31" height="5" rx="2.5" fill="#C3D4E9"/>
<rect x="79" y="202" width="75" height="5" rx="2.5" fill="#C3D4E9"/>
<circle cx="31" cy="31" r="28" fill="#7C5CFC" stroke="#0D121F" stroke-width="6"/>
<path d="M25.5281 41H37.4081V38.6H29.2721L33.5921 33.992C34.7761 32.712 35.6481 31.616 36.2081 30.704C36.7841 29.776 37.0721 28.824 37.0721 27.848C37.0721 26.856 36.8321 25.984 36.3521 25.232C35.8881 24.48 35.2321 23.896 34.3841 23.48C33.5361 23.048 32.5441 22.832 31.4081 22.832C30.4321 22.832 29.5281 23.024 28.6961 23.408C27.8641 23.792 27.1601 24.336 26.5841 25.04C26.0081 25.728 25.6161 26.544 25.4081 27.488L27.9041 28.208C28.1441 27.28 28.5761 26.576 29.2001 26.096C29.8241 25.6 30.5681 25.352 31.4321 25.352C32.2801 25.352 32.9601 25.592 33.4721 26.072C34.0001 26.552 34.2641 27.216 34.2641 28.064C34.2641 28.592 34.1441 29.096 33.9041 29.576C33.6641 30.056 33.2641 30.616 32.7041 31.256C32.1441 31.88 31.3841 32.704 30.4241 33.728L25.5281 38.96V41Z" fill="white"/>
</svg>
